<?xml version="1.0" encoding="UTF-8"?>
<!DOCTYPE svg
PUBLIC "-//W3C//DTD SVG 1.1//EN"
       "http://www.w3.org/Graphics/SVG/1.1/DTD/svg11.dtd">
<svg viewBox="26 -3 1232 797" width="1206px" height="800px" xmlns="http://www.w3.org/2000/svg" version="1.1">
   <line x1="944" y1="291" x2="934" y2="291" style="stroke:#cb0;stroke-width:1;"/>
   <line x1="789" y1="227" x2="779" y2="227" style="stroke:#cb0;stroke-width:1;"/>
   <line x1="934" y1="291" x2="789" y2="227" style="stroke:#cb0;stroke-width:1;"/>
   <line x1="936.5" y1="291" x2="940.03553390593" y2="294.53553390593" style="stroke:#cb0;stroke-width:2;"/>
   <line x1="936.5" y1="291" x2="940.03553390593" y2="287.46446609407" style="stroke:#cb0;stroke-width:2;"/>
   <line x1="784" y1="227" x2="787.53553390593" y2="230.53553390593" style="stroke:#cb0;stroke-width:2;"/>
   <line x1="784" y1="227" x2="787.53553390593" y2="223.46446609407" style="stroke:#cb0;stroke-width:2;"/>
   <line x1="1075" y1="311" x2="1085" y2="311" style="stroke:#cb0;stroke-width:1;"/>
   <line x1="1122" y1="374" x2="1132" y2="374" style="stroke:#cb0;stroke-width:1;"/>
   <line x1="1085" y1="311" x2="1122" y2="374" style="stroke:#cb0;stroke-width:1;"/>
   <line x1="1082.5" y1="311" x2="1078.9644660941" y2="314.53553390593" style="stroke:#cb0;stroke-width:2;"/>
   <line x1="1082.5" y1="311" x2="1078.9644660941" y2="307.46446609407" style="stroke:#cb0;stroke-width:2;"/>
   <line x1="1127" y1="374" x2="1123.4644660941" y2="377.53553390593" style="stroke:#cb0;stroke-width:2;"/>
   <line x1="1127" y1="374" x2="1123.4644660941" y2="370.46446609407" style="stroke:#cb0;stroke-width:2;"/>
   <line x1="825" y1="106" x2="815" y2="106" style="stroke:#333;stroke-width:1;"/>
   <line x1="789" y1="227" x2="779" y2="227" style="stroke:#333;stroke-width:1;"/>
   <line x1="815" y1="106" x2="789" y2="227" style="stroke:#333;stroke-width:1;"/>
   <line x1="817.5" y1="106" x2="821.03553390593" y2="109.53553390593" style="stroke:#333;stroke-width:2;"/>
   <line x1="817.5" y1="106" x2="821.03553390593" y2="102.46446609407" style="stroke:#333;stroke-width:2;"/>
   <line x1="784" y1="227" x2="787.53553390593" y2="230.53553390593" style="stroke:#333;stroke-width:2;"/>
   <line x1="784" y1="227" x2="787.53553390593" y2="223.46446609407" style="stroke:#333;stroke-width:2;"/>
   <line x1="953" y1="126" x2="963" y2="126" style="stroke:#b0b;stroke-width:1;"/>
   <line x1="1095" y1="42" x2="1105" y2="42" style="stroke:#b0b;stroke-width:1;"/>
   <line x1="963" y1="126" x2="1095" y2="42" style="stroke:#b0b;stroke-width:1;"/>
   <line x1="960.5" y1="126" x2="956.96446609407" y2="129.53553390593" style="stroke:#b0b;stroke-width:2;"/>
   <line x1="960.5" y1="126" x2="956.96446609407" y2="122.46446609407" style="stroke:#b0b;stroke-width:2;"/>
   <line x1="1100" y1="42" x2="1096.4644660941" y2="45.535533905933" style="stroke:#b0b;stroke-width:2;"/>
   <line x1="1100" y1="42" x2="1096.4644660941" y2="38.464466094067" style="stroke:#b0b;stroke-width:2;"/>
   <line x1="825" y1="86" x2="815" y2="86" style="stroke:#333;stroke-width:1;"/>
   <line x1="472" y1="182" x2="462" y2="182" style="stroke:#333;stroke-width:1;"/>
   <line x1="815" y1="86" x2="472" y2="182" style="stroke:#333;stroke-width:1;"/>
   <line x1="817.5" y1="86" x2="821.03553390593" y2="89.535533905933" style="stroke:#333;stroke-width:2;"/>
   <line x1="817.5" y1="86" x2="821.03553390593" y2="82.464466094067" style="stroke:#333;stroke-width:2;"/>
   <line x1="467" y1="182" x2="470.53553390593" y2="185.53553390593" style="stroke:#333;stroke-width:2;"/>
   <line x1="467" y1="182" x2="470.53553390593" y2="178.46446609407" style="stroke:#333;stroke-width:2;"/>
   <line x1="433" y1="444" x2="443" y2="444" style="stroke:#b0b;stroke-width:1;"/>
   <line x1="638" y1="227" x2="648" y2="227" style="stroke:#b0b;stroke-width:1;"/>
   <line x1="443" y1="444" x2="638" y2="227" style="stroke:#b0b;stroke-width:1;"/>
   <line x1="440.5" y1="444" x2="436.96446609407" y2="447.53553390593" style="stroke:#b0b;stroke-width:2;"/>
   <line x1="440.5" y1="444" x2="436.96446609407" y2="440.46446609407" style="stroke:#b0b;stroke-width:2;"/>
   <line x1="643" y1="227" x2="639.46446609407" y2="230.53553390593" style="stroke:#b0b;stroke-width:2;"/>
   <line x1="643" y1="227" x2="639.46446609407" y2="223.46446609407" style="stroke:#b0b;stroke-width:2;"/>
   <line x1="356" y1="484" x2="346" y2="484" style="stroke:#333;stroke-width:1;"/>
   <line x1="383" y1="613" x2="373" y2="613" style="stroke:#333;stroke-width:1;"/>
   <line x1="346" y1="484" x2="383" y2="613" style="stroke:#333;stroke-width:1;"/>
   <line x1="348.5" y1="484" x2="352.03553390593" y2="487.53553390593" style="stroke:#333;stroke-width:2;"/>
   <line x1="348.5" y1="484" x2="352.03553390593" y2="480.46446609407" style="stroke:#333;stroke-width:2;"/>
   <line x1="378" y1="613" x2="381.53553390593" y2="616.53553390593" style="stroke:#333;stroke-width:2;"/>
   <line x1="378" y1="613" x2="381.53553390593" y2="609.46446609407" style="stroke:#333;stroke-width:2;"/>
   <line x1="356" y1="464" x2="346" y2="464" style="stroke:#c00;stroke-width:1;"/>
   <line x1="325" y1="182" x2="335" y2="182" style="stroke:#c00;stroke-width:1;"/>
   <line x1="346" y1="464" x2="325" y2="182" style="stroke:#c00;stroke-width:1;"/>
   <line x1="348.5" y1="464" x2="352.03553390593" y2="467.53553390593" style="stroke:#c00;stroke-width:2;"/>
   <line x1="348.5" y1="464" x2="352.03553390593" y2="460.46446609407" style="stroke:#c00;stroke-width:2;"/>
   <line x1="330" y1="182" x2="326.46446609407" y2="185.53553390593" style="stroke:#c00;stroke-width:2;"/>
   <line x1="330" y1="182" x2="326.46446609407" y2="178.46446609407" style="stroke:#c00;stroke-width:2;"/>
   <line x1="122" y1="297" x2="132" y2="297" style="stroke:#bbb;stroke-width:1;"/>
   <line x1="325" y1="182" x2="335" y2="182" style="stroke:#bbb;stroke-width:1;"/>
   <line x1="132" y1="297" x2="325" y2="182" style="stroke:#bbb;stroke-width:1;"/>
   <line x1="129.5" y1="297" x2="125.96446609407" y2="300.53553390593" style="stroke:#bbb;stroke-width:2;"/>
   <line x1="129.5" y1="297" x2="125.96446609407" y2="293.46446609407" style="stroke:#bbb;stroke-width:2;"/>
   <line x1="330" y1="182" x2="326.46446609407" y2="185.53553390593" style="stroke:#bbb;stroke-width:2;"/>
   <line x1="330" y1="182" x2="326.46446609407" y2="178.46446609407" style="stroke:#bbb;stroke-width:2;"/>
   <line x1="112" y1="473" x2="122" y2="473" style="stroke:#0b0;stroke-width:1;"/>
   <line x1="638" y1="227" x2="648" y2="227" style="stroke:#0b0;stroke-width:1;"/>
   <line x1="122" y1="473" x2="638" y2="227" style="stroke:#0b0;stroke-width:1;"/>
   <line x1="119.5" y1="473" x2="115.96446609407" y2="476.53553390593" style="stroke:#0b0;stroke-width:2;"/>
   <line x1="119.5" y1="473" x2="115.96446609407" y2="469.46446609407" style="stroke:#0b0;stroke-width:2;"/>
   <line x1="643" y1="227" x2="639.46446609407" y2="230.53553390593" style="stroke:#0b0;stroke-width:2;"/>
   <line x1="643" y1="227" x2="639.46446609407" y2="223.46446609407" style="stroke:#0b0;stroke-width:2;"/>
   <line x1="112" y1="453" x2="122" y2="453" style="stroke:#bbb;stroke-width:1;"/>
   <line x1="325" y1="182" x2="335" y2="182" style="stroke:#bbb;stroke-width:1;"/>
   <line x1="122" y1="453" x2="325" y2="182" style="stroke:#bbb;stroke-width:1;"/>
   <line x1="119.5" y1="453" x2="115.96446609407" y2="456.53553390593" style="stroke:#bbb;stroke-width:2;"/>
   <line x1="119.5" y1="453" x2="115.96446609407" y2="449.46446609407" style="stroke:#bbb;stroke-width:2;"/>
   <line x1="330" y1="182" x2="326.46446609407" y2="185.53553390593" style="stroke:#bbb;stroke-width:2;"/>
   <line x1="330" y1="182" x2="326.46446609407" y2="178.46446609407" style="stroke:#bbb;stroke-width:2;"/>
   <line x1="789" y1="504" x2="799" y2="504" style="stroke:#b0b;stroke-width:1;"/>
   <line x1="789" y1="227" x2="779" y2="227" style="stroke:#b0b;stroke-width:1;"/>
   <line x1="799" y1="504" x2="789" y2="227" style="stroke:#b0b;stroke-width:1;"/>
   <line x1="796.5" y1="504" x2="792.96446609407" y2="507.53553390593" style="stroke:#b0b;stroke-width:2;"/>
   <line x1="796.5" y1="504" x2="792.96446609407" y2="500.46446609407" style="stroke:#b0b;stroke-width:2;"/>
   <line x1="784" y1="227" x2="787.53553390593" y2="230.53553390593" style="stroke:#b0b;stroke-width:2;"/>
   <line x1="784" y1="227" x2="787.53553390593" y2="223.46446609407" style="stroke:#b0b;stroke-width:2;"/>
   <line x1="688" y1="484" x2="678" y2="484" style="stroke:#cb0;stroke-width:1;"/>
   <line x1="472" y1="182" x2="462" y2="182" style="stroke:#cb0;stroke-width:1;"/>
   <line x1="678" y1="484" x2="472" y2="182" style="stroke:#cb0;stroke-width:1;"/>
   <line x1="680.5" y1="484" x2="684.03553390593" y2="487.53553390593" style="stroke:#cb0;stroke-width:2;"/>
   <line x1="680.5" y1="484" x2="684.03553390593" y2="480.46446609407" style="stroke:#cb0;stroke-width:2;"/>
   <line x1="467" y1="182" x2="470.53553390593" y2="185.53553390593" style="stroke:#cb0;stroke-width:2;"/>
   <line x1="467" y1="182" x2="470.53553390593" y2="178.46446609407" style="stroke:#cb0;stroke-width:2;"/>
   <line x1="1016" y1="557" x2="1006" y2="557" style="stroke:#bbb;stroke-width:1;"/>
   <line x1="789" y1="227" x2="779" y2="227" style="stroke:#bbb;stroke-width:1;"/>
   <line x1="1006" y1="557" x2="789" y2="227" style="stroke:#bbb;stroke-width:1;"/>
   <line x1="1008.5" y1="557" x2="1012.0355339059" y2="560.53553390593" style="stroke:#bbb;stroke-width:2;"/>
   <line x1="1008.5" y1="557" x2="1012.0355339059" y2="553.46446609407" style="stroke:#bbb;stroke-width:2;"/>
   <line x1="784" y1="227" x2="787.53553390593" y2="230.53553390593" style="stroke:#bbb;stroke-width:2;"/>
   <line x1="784" y1="227" x2="787.53553390593" y2="223.46446609407" style="stroke:#bbb;stroke-width:2;"/>
   <line x1="266" y1="72" x2="256" y2="72" style="stroke:#b0b;stroke-width:1;"/>
   <line x1="102" y1="56" x2="92" y2="56" style="stroke:#b0b;stroke-width:1;"/>
   <line x1="256" y1="72" x2="102" y2="56" style="stroke:#b0b;stroke-width:1;"/>
   <line x1="258.5" y1="72" x2="262.03553390593" y2="75.535533905933" style="stroke:#b0b;stroke-width:2;"/>
   <line x1="258.5" y1="72" x2="262.03553390593" y2="68.464466094067" style="stroke:#b0b;stroke-width:2;"/>
   <line x1="97" y1="56" x2="100.53553390593" y2="59.535533905933" style="stroke:#b0b;stroke-width:2;"/>
   <line x1="97" y1="56" x2="100.53553390593" y2="52.464466094067" style="stroke:#b0b;stroke-width:2;"/>
   <line x1="352" y1="92" x2="362" y2="92" style="stroke:#333;stroke-width:1;"/>
   <line x1="325" y1="182" x2="335" y2="182" style="stroke:#333;stroke-width:1;"/>
   <line x1="362" y1="92" x2="325" y2="182" style="stroke:#333;stroke-width:1;"/>
   <line x1="359.5" y1="92" x2="355.96446609407" y2="95.535533905933" style="stroke:#333;stroke-width:2;"/>
   <line x1="359.5" y1="92" x2="355.96446609407" y2="88.464466094067" style="stroke:#333;stroke-width:2;"/>
   <line x1="330" y1="182" x2="326.46446609407" y2="185.53553390593" style="stroke:#333;stroke-width:2;"/>
   <line x1="330" y1="182" x2="326.46446609407" y2="178.46446609407" style="stroke:#333;stroke-width:2;"/>
   <rect width="131" height="20" x="648" y="197" style="fill:#007;stroke:black;"/>
   <text width="131" height="20" x="653" y="211" style="fill:#fff;" font-family="Arial" font-size="16px"> books</text>
   <rect width="131" height="20" x="648" y="217" style="fill:#aea;stroke:black;"/>
   <text width="131" height="20" x="653" y="231" style="fill:black;" font-family="Arial" font-size="16px">id</text>
   <rect width="131" height="20" x="648" y="237" style="fill:none;stroke:black;"/>
   <text width="131" height="20" x="653" y="251" style="fill:black;" font-family="Arial" font-size="16px">title</text>
   <rect width="131" height="20" x="648" y="257" style="fill:none;stroke:black;"/>
   <text width="131" height="20" x="653" y="271" style="fill:black;" font-family="Arial" font-size="16px">author</text>
   <rect width="131" height="20" x="648" y="277" style="fill:none;stroke:black;"/>
   <text width="131" height="20" x="653" y="291" style="fill:black;" font-family="Arial" font-size="16px">publishing_house</text>
   <rect width="131" height="20" x="648" y="297" style="fill:none;stroke:black;"/>
   <text width="131" height="20" x="653" y="311" style="fill:black;" font-family="Arial" font-size="16px">description</text>
   <rect width="131" height="20" x="648" y="317" style="fill:none;stroke:black;"/>
   <text width="131" height="20" x="653" y="331" style="fill:black;" font-family="Arial" font-size="16px">photo</text>
   <rect width="131" height="20" x="648" y="337" style="fill:none;stroke:black;"/>
   <text width="131" height="20" x="653" y="351" style="fill:black;" font-family="Arial" font-size="16px">price</text>
   <rect width="131" height="20" x="944" y="241" style="fill:#007;stroke:black;"/>
   <text width="131" height="20" x="949" y="255" style="fill:#fff;" font-family="Arial" font-size="16px"> books_categories</text>
   <rect width="131" height="20" x="944" y="261" style="fill:#aea;stroke:black;"/>
   <text width="131" height="20" x="949" y="275" style="fill:black;" font-family="Arial" font-size="16px">id</text>
   <rect width="131" height="20" x="944" y="281" style="fill:none;stroke:black;"/>
   <text width="131" height="20" x="949" y="295" style="fill:black;" font-family="Arial" font-size="16px">book_id</text>
   <rect width="131" height="20" x="944" y="301" style="fill:none;stroke:black;"/>
   <text width="131" height="20" x="949" y="315" style="fill:black;" font-family="Arial" font-size="16px">category_id</text>
   <rect width="128" height="20" x="825" y="36" style="fill:#007;stroke:black;"/>
   <text width="128" height="20" x="830" y="50" style="fill:#fff;" font-family="Arial" font-size="16px"> books_comments</text>
   <rect width="128" height="20" x="825" y="56" style="fill:#aea;stroke:black;"/>
   <text width="128" height="20" x="830" y="70" style="fill:black;" font-family="Arial" font-size="16px">id</text>
   <rect width="128" height="20" x="825" y="76" style="fill:none;stroke:black;"/>
   <text width="128" height="20" x="830" y="90" style="fill:black;" font-family="Arial" font-size="16px">user_id</text>
   <rect width="128" height="20" x="825" y="96" style="fill:none;stroke:black;"/>
   <text width="128" height="20" x="830" y="110" style="fill:black;" font-family="Arial" font-size="16px">book_id</text>
   <rect width="128" height="20" x="825" y="116" style="fill:none;stroke:black;"/>
   <text width="128" height="20" x="830" y="130" style="fill:black;" font-family="Arial" font-size="16px">comment_id</text>
   <rect width="128" height="20" x="825" y="136" style="fill:none;stroke:black;"/>
   <text width="128" height="20" x="830" y="150" style="fill:black;" font-family="Arial" font-size="16px">approvals</text>
   <rect width="77" height="20" x="356" y="394" style="fill:#007;stroke:black;"/>
   <text width="77" height="20" x="361" y="408" style="fill:#fff;" font-family="Arial" font-size="16px"> buys</text>
   <rect width="77" height="20" x="356" y="414" style="fill:#aea;stroke:black;"/>
   <text width="77" height="20" x="361" y="428" style="fill:black;" font-family="Arial" font-size="16px">id</text>
   <rect width="77" height="20" x="356" y="434" style="fill:none;stroke:black;"/>
   <text width="77" height="20" x="361" y="448" style="fill:black;" font-family="Arial" font-size="16px">book_id</text>
   <rect width="77" height="20" x="356" y="454" style="fill:none;stroke:black;"/>
   <text width="77" height="20" x="361" y="468" style="fill:black;" font-family="Arial" font-size="16px">user_id</text>
   <rect width="77" height="20" x="356" y="474" style="fill:none;stroke:black;"/>
   <text width="77" height="20" x="361" y="488" style="fill:black;" font-family="Arial" font-size="16px">invoice_id</text>
   <rect width="85" height="20" x="1132" y="344" style="fill:#007;stroke:black;"/>
   <text width="85" height="20" x="1137" y="358" style="fill:#fff;" font-family="Arial" font-size="16px"> categories</text>
   <rect width="85" height="20" x="1132" y="364" style="fill:#aea;stroke:black;"/>
   <text width="85" height="20" x="1137" y="378" style="fill:black;" font-family="Arial" font-size="16px">id</text>
   <rect width="85" height="20" x="1132" y="384" style="fill:none;stroke:black;"/>
   <text width="85" height="20" x="1137" y="398" style="fill:black;" font-family="Arial" font-size="16px">name</text>
   <rect width="84" height="20" x="1105" y="12" style="fill:#007;stroke:black;"/>
   <text width="84" height="20" x="1110" y="26" style="fill:#fff;" font-family="Arial" font-size="16px"> comments</text>
   <rect width="84" height="20" x="1105" y="32" style="fill:#aea;stroke:black;"/>
   <text width="84" height="20" x="1110" y="46" style="fill:black;" font-family="Arial" font-size="16px">id</text>
   <rect width="84" height="20" x="1105" y="52" style="fill:none;stroke:black;"/>
   <text width="84" height="20" x="1110" y="66" style="fill:black;" font-family="Arial" font-size="16px">text</text>
   <rect width="127" height="20" x="246" y="583" style="fill:#007;stroke:black;"/>
   <text width="127" height="20" x="251" y="597" style="fill:#fff;" font-family="Arial" font-size="16px"> invoices</text>
   <rect width="127" height="20" x="246" y="603" style="fill:#aea;stroke:black;"/>
   <text width="127" height="20" x="251" y="617" style="fill:black;" font-family="Arial" font-size="16px">id</text>
   <rect width="127" height="20" x="246" y="623" style="fill:none;stroke:black;"/>
   <text width="127" height="20" x="251" y="637" style="fill:black;" font-family="Arial" font-size="16px">date</text>
   <rect width="127" height="20" x="246" y="643" style="fill:none;stroke:black;"/>
   <text width="127" height="20" x="251" y="657" style="fill:black;" font-family="Arial" font-size="16px">billing_address</text>
   <rect width="127" height="20" x="246" y="663" style="fill:none;stroke:black;"/>
   <text width="127" height="20" x="251" y="677" style="fill:black;" font-family="Arial" font-size="16px">delivery_address</text>
   <rect width="83" height="20" x="64" y="698" style="fill:#007;stroke:black;"/>
   <text width="83" height="20" x="69" y="712" style="fill:#fff;" font-family="Arial" font-size="16px"> migrations</text>
   <rect width="83" height="20" x="64" y="718" style="fill:#aea;stroke:black;"/>
   <text width="83" height="20" x="69" y="732" style="fill:black;" font-family="Arial" font-size="16px">id</text>
   <rect width="83" height="20" x="64" y="738" style="fill:none;stroke:black;"/>
   <text width="83" height="20" x="69" y="752" style="fill:black;" font-family="Arial" font-size="16px">migration</text>
   <rect width="83" height="20" x="64" y="758" style="fill:none;stroke:black;"/>
   <text width="83" height="20" x="69" y="772" style="fill:black;" font-family="Arial" font-size="16px">batch</text>
   <rect width="123" height="20" x="317" y="702" style="fill:#007;stroke:black;"/>
   <text width="123" height="20" x="322" y="716" style="fill:#fff;" font-family="Arial" font-size="16px"> password_resets</text>
   <rect width="123" height="20" x="317" y="722" style="fill:none;stroke:black;"/>
   <text width="123" height="20" x="322" y="736" style="fill:black;" font-family="Arial" font-size="16px">email</text>
   <rect width="123" height="20" x="317" y="742" style="fill:none;stroke:black;"/>
   <text width="123" height="20" x="322" y="756" style="fill:black;" font-family="Arial" font-size="16px">token</text>
   <rect width="123" height="20" x="317" y="762" style="fill:none;stroke:black;"/>
   <text width="123" height="20" x="322" y="776" style="fill:black;" font-family="Arial" font-size="16px">created_at</text>
   <rect width="81" height="20" x="41" y="147" style="fill:#007;stroke:black;"/>
   <text width="81" height="20" x="46" y="161" style="fill:#fff;" font-family="Arial" font-size="16px"> profiles</text>
   <rect width="81" height="20" x="41" y="167" style="fill:#aea;stroke:black;"/>
   <text width="81" height="20" x="46" y="181" style="fill:black;" font-family="Arial" font-size="16px">id</text>
   <rect width="81" height="20" x="41" y="187" style="fill:none;stroke:black;"/>
   <text width="81" height="20" x="46" y="201" style="fill:black;" font-family="Arial" font-size="16px">first_name</text>
   <rect width="81" height="20" x="41" y="207" style="fill:none;stroke:black;"/>
   <text width="81" height="20" x="46" y="221" style="fill:black;" font-family="Arial" font-size="16px">last_name</text>
   <rect width="81" height="20" x="41" y="227" style="fill:none;stroke:black;"/>
   <text width="81" height="20" x="46" y="241" style="fill:black;" font-family="Arial" font-size="16px">phone</text>
   <rect width="81" height="20" x="41" y="247" style="fill:none;stroke:black;"/>
   <text width="81" height="20" x="46" y="261" style="fill:black;" font-family="Arial" font-size="16px">adress</text>
   <rect width="81" height="20" x="41" y="267" style="fill:none;stroke:black;"/>
   <text width="81" height="20" x="46" y="281" style="fill:black;" font-family="Arial" font-size="16px">photo</text>
   <rect width="81" height="20" x="41" y="287" style="fill:none;stroke:black;"/>
   <text width="81" height="20" x="46" y="301" style="fill:black;" font-family="Arial" font-size="16px">user_id</text>
   <rect width="62" height="20" x="50" y="403" style="fill:#007;stroke:black;"/>
   <text width="62" height="20" x="55" y="417" style="fill:#fff;" font-family="Arial" font-size="16px"> ratings</text>
   <rect width="62" height="20" x="50" y="423" style="fill:#aea;stroke:black;"/>
   <text width="62" height="20" x="55" y="437" style="fill:black;" font-family="Arial" font-size="16px">id</text>
   <rect width="62" height="20" x="50" y="443" style="fill:none;stroke:black;"/>
   <text width="62" height="20" x="55" y="457" style="fill:black;" font-family="Arial" font-size="16px">user_id</text>
   <rect width="62" height="20" x="50" y="463" style="fill:none;stroke:black;"/>
   <text width="62" height="20" x="55" y="477" style="fill:black;" font-family="Arial" font-size="16px">book_id</text>
   <rect width="62" height="20" x="50" y="483" style="fill:none;stroke:black;"/>
   <text width="62" height="20" x="55" y="497" style="fill:black;" font-family="Arial" font-size="16px">rating</text>
   <rect width="101" height="20" x="688" y="434" style="fill:#007;stroke:black;"/>
   <text width="101" height="20" x="693" y="448" style="fill:#fff;" font-family="Arial" font-size="16px"> requirements</text>
   <rect width="101" height="20" x="688" y="454" style="fill:#aea;stroke:black;"/>
   <text width="101" height="20" x="693" y="468" style="fill:black;" font-family="Arial" font-size="16px">id</text>
   <rect width="101" height="20" x="688" y="474" style="fill:none;stroke:black;"/>
   <text width="101" height="20" x="693" y="488" style="fill:black;" font-family="Arial" font-size="16px">user_id</text>
   <rect width="101" height="20" x="688" y="494" style="fill:none;stroke:black;"/>
   <text width="101" height="20" x="693" y="508" style="fill:black;" font-family="Arial" font-size="16px">book_id</text>
   <rect width="101" height="20" x="688" y="514" style="fill:none;stroke:black;"/>
   <text width="101" height="20" x="693" y="528" style="fill:black;" font-family="Arial" font-size="16px">increment</text>
   <rect width="50" height="20" x="42" y="26" style="fill:#007;stroke:black;"/>
   <text width="50" height="20" x="47" y="40" style="fill:#fff;" font-family="Arial" font-size="16px"> roles</text>
   <rect width="50" height="20" x="42" y="46" style="fill:#aea;stroke:black;"/>
   <text width="50" height="20" x="47" y="60" style="fill:black;" font-family="Arial" font-size="16px">id</text>
   <rect width="50" height="20" x="42" y="66" style="fill:none;stroke:black;"/>
   <text width="50" height="20" x="47" y="80" style="fill:black;" font-family="Arial" font-size="16px">name</text>
   <rect width="63" height="20" x="1016" y="507" style="fill:#007;stroke:black;"/>
   <text width="63" height="20" x="1021" y="521" style="fill:#fff;" font-family="Arial" font-size="16px"> stocks</text>
   <rect width="63" height="20" x="1016" y="527" style="fill:#aea;stroke:black;"/>
   <text width="63" height="20" x="1021" y="541" style="fill:black;" font-family="Arial" font-size="16px">id</text>
   <rect width="63" height="20" x="1016" y="547" style="fill:none;stroke:black;"/>
   <text width="63" height="20" x="1021" y="561" style="fill:black;" font-family="Arial" font-size="16px">book_id</text>
   <rect width="63" height="20" x="1016" y="567" style="fill:none;stroke:black;"/>
   <text width="63" height="20" x="1021" y="581" style="fill:black;" font-family="Arial" font-size="16px">amount</text>
   <rect width="127" height="20" x="335" y="152" style="fill:#007;stroke:black;"/>
   <text width="127" height="20" x="340" y="166" style="fill:#fff;" font-family="Arial" font-size="16px"> users</text>
   <rect width="127" height="20" x="335" y="172" style="fill:#aea;stroke:black;"/>
   <text width="127" height="20" x="340" y="186" style="fill:black;" font-family="Arial" font-size="16px">id</text>
   <rect width="127" height="20" x="335" y="192" style="fill:none;stroke:black;"/>
   <text width="127" height="20" x="340" y="206" style="fill:black;" font-family="Arial" font-size="16px">name</text>
   <rect width="127" height="20" x="335" y="212" style="fill:none;stroke:black;"/>
   <text width="127" height="20" x="340" y="226" style="fill:black;" font-family="Arial" font-size="16px">email</text>
   <rect width="127" height="20" x="335" y="232" style="fill:none;stroke:black;"/>
   <text width="127" height="20" x="340" y="246" style="fill:black;" font-family="Arial" font-size="16px">password</text>
   <rect width="127" height="20" x="335" y="252" style="fill:none;stroke:black;"/>
   <text width="127" height="20" x="340" y="266" style="fill:black;" font-family="Arial" font-size="16px">remember_token</text>
   <rect width="127" height="20" x="335" y="272" style="fill:none;stroke:black;"/>
   <text width="127" height="20" x="340" y="286" style="fill:black;" font-family="Arial" font-size="16px">created_at</text>
   <rect width="127" height="20" x="335" y="292" style="fill:none;stroke:black;"/>
   <text width="127" height="20" x="340" y="306" style="fill:black;" font-family="Arial" font-size="16px">updated_at</text>
   <rect width="86" height="20" x="266" y="22" style="fill:#007;stroke:black;"/>
   <text width="86" height="20" x="271" y="36" style="fill:#fff;" font-family="Arial" font-size="16px"> users_roles</text>
   <rect width="86" height="20" x="266" y="42" style="fill:#aea;stroke:black;"/>
   <text width="86" height="20" x="271" y="56" style="fill:black;" font-family="Arial" font-size="16px">id</text>
   <rect width="86" height="20" x="266" y="62" style="fill:none;stroke:black;"/>
   <text width="86" height="20" x="271" y="76" style="fill:black;" font-family="Arial" font-size="16px">role_id</text>
   <rect width="86" height="20" x="266" y="82" style="fill:none;stroke:black;"/>
   <text width="86" height="20" x="271" y="96" style="fill:black;" font-family="Arial" font-size="16px">user_id</text>
</svg>
